<mxfile host="app.diagrams.net" agent="Mozilla/5.0 (X11; Linux x86_64; rv:137.0) Gecko/20100101 Firefox/137.0" version="26.2.12">
  <diagram name="Page-1" id="3-hoNx-oFPBd3e3wgJj-">
    <mxGraphModel dx="680" dy="1459" grid="1" gridSize="10" guides="1" tooltips="1" connect="1" arrows="1" fold="1" page="1" pageScale="1" pageWidth="850" pageHeight="1100" math="0" shadow="0">
      <root>
        <mxCell id="0" />
        <mxCell id="1" parent="0" />
        <mxCell id="-2NJOU67YEYeew-TCaY0-5" style="edgeStyle=orthogonalEdgeStyle;rounded=0;orthogonalLoop=1;jettySize=auto;html=1;shape=flexArrow;" edge="1" parent="1" source="-2NJOU67YEYeew-TCaY0-1" target="-2NJOU67YEYeew-TCaY0-4">
          <mxGeometry relative="1" as="geometry" />
        </mxCell>
        <mxCell id="-2NJOU67YEYeew-TCaY0-1" value="Main" style="rounded=0;whiteSpace=wrap;html=1;" vertex="1" parent="1">
          <mxGeometry x="320" y="330" width="120" height="60" as="geometry" />
        </mxCell>
        <mxCell id="-2NJOU67YEYeew-TCaY0-2" value="Server" style="rounded=0;whiteSpace=wrap;html=1;" vertex="1" parent="1">
          <mxGeometry x="120" y="420" width="120" height="60" as="geometry" />
        </mxCell>
        <mxCell id="-2NJOU67YEYeew-TCaY0-8" style="edgeStyle=orthogonalEdgeStyle;rounded=0;orthogonalLoop=1;jettySize=auto;html=1;entryX=1;entryY=0.5;entryDx=0;entryDy=0;" edge="1" parent="1" source="-2NJOU67YEYeew-TCaY0-4" target="-2NJOU67YEYeew-TCaY0-2">
          <mxGeometry relative="1" as="geometry" />
        </mxCell>
        <mxCell id="-2NJOU67YEYeew-TCaY0-4" value="Client x4" style="rounded=0;whiteSpace=wrap;html=1;" vertex="1" parent="1">
          <mxGeometry x="450" y="420" width="120" height="60" as="geometry" />
        </mxCell>
        <mxCell id="-2NJOU67YEYeew-TCaY0-6" value="Game" style="rounded=0;whiteSpace=wrap;html=1;" vertex="1" parent="1">
          <mxGeometry x="120" y="530" width="120" height="60" as="geometry" />
        </mxCell>
        <mxCell id="-2NJOU67YEYeew-TCaY0-9" value="Will init each player Obj" style="text;html=1;align=center;verticalAlign=middle;whiteSpace=wrap;rounded=0;" vertex="1" parent="1">
          <mxGeometry x="275" y="450" width="150" height="20" as="geometry" />
        </mxCell>
        <mxCell id="-2NJOU67YEYeew-TCaY0-12" value="Second key:&lt;div&gt;&lt;br&gt;&lt;/div&gt;&lt;br&gt;&lt;div&gt;&lt;br&gt;&lt;/div&gt;&lt;div&gt;Contains an instance of: &lt;br&gt;&lt;/div&gt;" style="rounded=0;whiteSpace=wrap;html=1;labelPosition=center;verticalLabelPosition=middle;align=left;verticalAlign=middle;textDirection=ltr;" vertex="1" parent="1">
          <mxGeometry x="250" y="-10" width="190" height="170" as="geometry" />
        </mxCell>
        <mxCell id="-2NJOU67YEYeew-TCaY0-17" value="" style="shape=flexArrow;endArrow=classic;html=1;rounded=0;exitX=0;exitY=0.5;exitDx=0;exitDy=0;entryX=0.5;entryY=0;entryDx=0;entryDy=0;" edge="1" parent="1" source="-2NJOU67YEYeew-TCaY0-1" target="-2NJOU67YEYeew-TCaY0-2">
          <mxGeometry width="50" height="50" relative="1" as="geometry">
            <mxPoint x="290" y="380" as="sourcePoint" />
            <mxPoint x="340" y="330" as="targetPoint" />
            <Array as="points">
              <mxPoint x="180" y="360" />
            </Array>
          </mxGeometry>
        </mxCell>
        <mxCell id="-2NJOU67YEYeew-TCaY0-18" value="" style="shape=flexArrow;endArrow=classic;html=1;rounded=0;" edge="1" parent="1">
          <mxGeometry width="50" height="50" relative="1" as="geometry">
            <mxPoint x="390" y="100" as="sourcePoint" />
            <mxPoint x="440" y="100" as="targetPoint" />
          </mxGeometry>
        </mxCell>
        <mxCell id="-2NJOU67YEYeew-TCaY0-19" value="" style="shape=flexArrow;endArrow=classic;html=1;rounded=0;entryX=0.5;entryY=0;entryDx=0;entryDy=0;exitX=0.5;exitY=1;exitDx=0;exitDy=0;" edge="1" parent="1" source="-2NJOU67YEYeew-TCaY0-2" target="-2NJOU67YEYeew-TCaY0-6">
          <mxGeometry width="50" height="50" relative="1" as="geometry">
            <mxPoint x="170" y="480" as="sourcePoint" />
            <mxPoint x="220" y="430" as="targetPoint" />
          </mxGeometry>
        </mxCell>
        <mxCell id="-2NJOU67YEYeew-TCaY0-25" value="Method name" style="swimlane;whiteSpace=wrap;html=1;" vertex="1" parent="1">
          <mxGeometry x="530" y="120" width="200" height="80" as="geometry">
            <mxRectangle x="530" y="120" width="110" height="30" as="alternateBounds" />
          </mxGeometry>
        </mxCell>
        <mxCell id="-2NJOU67YEYeew-TCaY0-26" value="Method function" style="rounded=0;whiteSpace=wrap;html=1;" vertex="1" parent="-2NJOU67YEYeew-TCaY0-25">
          <mxGeometry x="40" y="40" width="120" height="20" as="geometry" />
        </mxCell>
        <mxCell id="-2NJOU67YEYeew-TCaY0-27" value="Key:" style="text;html=1;align=center;verticalAlign=middle;whiteSpace=wrap;rounded=0;" vertex="1" parent="1">
          <mxGeometry x="470" y="20" width="60" height="30" as="geometry" />
        </mxCell>
        <mxCell id="-2NJOU67YEYeew-TCaY0-29" style="edgeStyle=orthogonalEdgeStyle;rounded=0;orthogonalLoop=1;jettySize=auto;html=1;entryX=0.5;entryY=0;entryDx=0;entryDy=0;" edge="1" parent="1" source="-2NJOU67YEYeew-TCaY0-28" target="-2NJOU67YEYeew-TCaY0-25">
          <mxGeometry relative="1" as="geometry" />
        </mxCell>
        <mxCell id="-2NJOU67YEYeew-TCaY0-28" value="Object" style="rounded=0;whiteSpace=wrap;html=1;" vertex="1" parent="1">
          <mxGeometry x="570" y="10" width="120" height="60" as="geometry" />
        </mxCell>
        <mxCell id="-2NJOU67YEYeew-TCaY0-30" value="&lt;div&gt;Has method&lt;/div&gt;&lt;div&gt;/&lt;/div&gt;&lt;div&gt;Is using method&lt;/div&gt;" style="text;html=1;align=center;verticalAlign=middle;whiteSpace=wrap;rounded=0;" vertex="1" parent="1">
          <mxGeometry x="630" y="80" width="100" height="30" as="geometry" />
        </mxCell>
        <mxCell id="-2NJOU67YEYeew-TCaY0-31" value="*the main communication methods with the objects will be with player arrays*" style="rounded=0;whiteSpace=wrap;html=1;fillColor=#e51400;fontColor=#ffffff;strokeColor=#B20000;" vertex="1" parent="1">
          <mxGeometry x="70" y="185" width="180" height="110" as="geometry" />
        </mxCell>
      </root>
    </mxGraphModel>
  </diagram>
</mxfile>
